<?xml version="1.0" encoding="UTF-8"?>
<svg id="Layer_2" data-name="Layer 2" xmlns="http://www.w3.org/2000/svg" viewBox="0 0 918.6 882.96">
  <defs>
    <style>
      .cls-1 {
        fill: #00a99d;
      }

      .cls-2 {
        fill: #8cc63f;
      }

      .cls-3 {
        fill: #95c63e;
      }

      .cls-4 {
        fill: #409437;
      }

      .cls-5 {
        fill: #006837;
      }
    </style>
  </defs>
  <g>
    <g>
      <polygon class="cls-1" points="836.44 784.93 843.84 761.05 441.09 636.4 449.2 628.59 394.34 648.07 836.44 784.93"/>
      <polygon class="cls-1" points="449.2 628.59 729.12 359.16 720.35 350.04 423.24 637.8 449.2 628.59"/>
      <polygon class="cls-1" points="720.35 350.04 711.78 341.13 393.24 647.72 394.34 648.07 423.24 637.8 720.35 350.04"/>
    </g>
    <g>
      <path class="cls-4" d="M694.28,375.68l104.65,7.49c57.81,4.14,108.02-39.37,112.17-97.17,4.14-57.79,7.5-104.67,7.5-104.67l-224.32,194.35h0Z"/>
      <path class="cls-3" d="M918.59,181.33l-104.67-7.49c-57.8-4.14-108.03,39.37-112.17,97.17-3.62,50.31-6.59,92.34-7.31,102.39-.12,1.49-.17,2.28-.17,2.28l224.32-194.35Z"/>
    </g>
    <path class="cls-4" d="M645.04,510.57c-15.82-15.29-41.07-14.88-56.35.95-13.34,13.78-24.46,25.29-27.12,28.05-.39.4-.61.61-.61.61l28.66,27.7c15.84,15.32,41.08,14.89,56.38-.94,15.3-15.81,27.7-28.65,27.7-28.65l-28.65-27.72h-.01Z"/>
    <g>
      <path class="cls-3" d="M207.76,0l-36.25,72.35c-20.01,39.95-3.85,88.58,36.09,108.59,34.78,17.42,63.85,31.96,70.8,35.44,1.04.53,1.57.79,1.57.79L207.75.02h.01Z"/>
      <path class="cls-4" d="M279.98,217.17l36.23-72.33c20.02-39.96,3.85-88.58-36.11-108.59C240.16,16.23,207.77,0,207.77,0l72.22,217.16h0Z"/>
    </g>
    <g>
      <polygon class="cls-1" points="433.37 646.22 465.55 370.2 440.71 367.3 416.64 574 422.04 647.37 433.37 646.22"/>
      <polygon class="cls-4" points="422.04 647.37 416.64 574 415.08 587.37 284.07 192.65 272.82 196.37 421.2 647.45 422.04 647.37"/>
      <polygon class="cls-3" points="272.82 196.37 260.33 200.53 409.1 648.67 421.2 647.45 272.82 196.37"/>
    </g>
    <polygon class="cls-1" points="451.5 626.85 295.48 844.16 275.17 829.6 386.93 673.95 95.63 768.06 87.95 744.28 451.5 626.85 451.5 626.85"/>
    <path class="cls-1" d="M834.18,831.9c-30.88-9.45-48.27-42.14-38.81-73.04,9.45-30.88,42.16-48.29,73.04-38.85,30.91,9.45,48.27,42.18,38.82,73.07-9.45,30.9-42.15,48.27-73.05,38.82h0Z"/>
    <path class="cls-1" d="M266.72,881.17c-21.56-6.6-33.69-29.42-27.1-50.99,6.61-21.61,29.44-33.74,51-27.14,21.59,6.61,33.72,29.42,27.11,51.03-6.6,21.56-29.42,33.7-51.01,27.09h0Z"/>
    <path class="cls-1" d="M53.88,830.32c-40.18-12.29-62.83-54.87-50.53-95.07,12.31-40.23,54.9-62.84,95.08-50.55,40.23,12.31,62.85,54.87,50.54,95.1-12.3,40.2-54.86,62.83-95.09,50.52h0Z"/>
    <path class="cls-1" d="M471.62,251.94c34.31,5.02,58.1,36.94,53.05,71.29-5.04,34.38-36.97,58.14-71.28,53.07-34.4-5.02-58.16-36.96-53.11-71.31,5.03-34.34,36.97-58.11,71.34-53.05h0Z"/>
    <path class="cls-1" d="M396.87,723.48c-49.69-15.2-77.63-67.79-62.43-117.49,15.2-49.67,67.78-77.63,117.47-62.42,49.68,15.2,77.63,67.79,62.44,117.46-15.2,49.7-67.79,77.65-117.48,62.45h0Z"/>
  </g>
  <path class="cls-2" d="M190.69,283.43c-.06-.03-.13-.04-.19-.06-.44-.2-.45-.18,0,.03.07,0,.12.01.19.02,36.4,7.67,71.27,25.06,92.06,55.1-19.71,6.8-58.88,16.49-92.52,1.41-47.08-21.11-65.25-82.89-65.25-82.89,0,0,58.19-27.53,105.3-6.38,28.67,12.85,46.58,40.74,56.22,60.62-28.86-17.44-62.73-28.01-95.82-27.86h0Z"/>
  <path class="cls-2" d="M768.91,477.42c.07.02.14.05.19.08.51.13.5.15-.02.03-.06-.04-.11-.07-.17-.11-35.83-17.97-76.89-26.72-114.59-15.36,12.05,18.96,38.55,53.43,77.03,63.3,53.86,13.81,110.64-26.06,110.64-26.06,0,0-30.56-62.27-84.46-76.08-32.8-8.42-66.61,3.06-88.08,13.34,36.03,4.67,71.68,18.51,99.46,40.85h0Z"/>
  <path class="cls-5" d="M551.57,414.93s-.01-.07-.02-.1c-.08-.23-.07-.23.02,0v.1c2.46,18.58,9.87,36.77,24.17,48.36,4.17-9.64,10.54-28.95,4.25-46.43-8.81-24.46-39.15-35.95-39.15-35.95,0,0-16.06,28.18-7.24,52.66,5.36,14.9,18.69,24.96,28.31,30.57-7.66-15.17-11.68-32.59-10.33-49.21h0Z"/>
  <path class="cls-5" d="M376.02,209.74s.08-.02.12-.03c.28-.12.28-.11,0,.02-.04,0-.07,0-.12.01-22.77,4.8-44.57,15.68-57.57,34.46,12.33,4.25,36.82,10.32,57.86.88,29.45-13.21,40.81-51.84,40.81-51.84,0,0-36.39-17.21-65.85-3.99-17.93,8.04-29.13,25.48-35.16,37.91,18.05-10.91,39.23-17.52,59.92-17.42h-.01Z"/>
</svg>